<?xml version="1.0" encoding="UTF-8"?>
<!DOCTYPE svg PUBLIC "-//W3C//DTD SVG 1.1//EN" "http://www.w3.org/Graphics/SVG/1.1/DTD/svg11.dtd">
<svg xmlns="http://www.w3.org/2000/svg" version="1.1" width="1000px" height="1000px" style="shape-rendering:geometricPrecision; text-rendering:geometricPrecision; image-rendering:optimizeQuality; fill-rule:evenodd; clip-rule:evenodd" xmlns:xlink="http://www.w3.org/1999/xlink">
<g><path style="opacity:0.991" fill="#020202" d="M 324.5,56.5 C 358.175,56.9882 391.842,57.8216 425.5,59C 487.859,61.2033 547.526,74.87 604.5,100C 633.102,114.207 659.935,131.04 685,150.5C 689.302,159.652 691.968,169.319 693,179.5C 694.792,194.458 696.125,209.458 697,224.5C 733.313,198.413 773.979,186.08 819,187.5C 850.168,187.4 880.002,193.567 908.5,206C 944.413,224.657 960.246,254.157 956,294.5C 943.711,353.771 915.878,404.104 872.5,445.5C 908.531,554.654 899.031,659.654 844,760.5C 775.973,872.488 676.473,936.655 545.5,953C 419.947,963.048 312.78,923.882 224,835.5C 139.522,743.331 105.856,634.998 123,510.5C 124.976,498.097 127.81,485.931 131.5,474C 98.3812,452.546 72.5478,424.38 54,389.5C 36.872,359.117 26.372,326.617 22.5,292C 23.6227,262.567 36.2894,239.567 60.5,223C 83.5679,209.313 108.568,201.646 135.5,200C 168.191,196.64 200.191,199.974 231.5,210C 255.789,218.721 276.622,232.554 294,251.5C 298.916,247.957 304.083,244.79 309.5,242C 313.527,210.279 317.027,178.446 320,146.5C 320.667,129.5 320.667,112.5 320,95.5C 319.29,85.6961 317.79,76.0294 315.5,66.5C 316.478,61.1948 319.478,57.8615 324.5,56.5 Z"/></g>
<g><path style="opacity:1" fill="#fdfdfd" d="M 324.5,65.5 C 341.572,64.8563 358.405,65.5229 375,67.5C 376.28,74.7951 377.28,82.1285 378,89.5C 378.667,109.5 378.667,129.5 378,149.5C 376.039,170.829 374.206,192.162 372.5,213.5C 354.373,219.645 336.873,227.312 320,236.5C 324.08,198.604 327.247,160.604 329.5,122.5C 329.488,103.334 327.822,84.3341 324.5,65.5 Z"/></g>
<g><path style="opacity:1" fill="#fcfcfc" d="M 448.5,193.5 C 446.744,192.448 446.077,190.781 446.5,188.5C 449.864,148.852 450.198,109.186 447.5,69.5C 465.328,70.7157 482.995,73.049 500.5,76.5C 501.994,76.7092 503.161,77.3759 504,78.5C 506.025,115.53 505.525,152.53 502.5,189.5C 484.414,189.839 466.414,191.172 448.5,193.5 Z"/></g>
<g><path style="opacity:1" fill="#fdfdfd" d="M 573.5,96.5 C 590.853,102.62 607.52,110.287 623.5,119.5C 624.056,148.824 624.056,178.157 623.5,207.5C 605.805,202.244 587.805,198.244 569.5,195.5C 569.705,179.83 570.039,164.163 570.5,148.5C 570.838,130.976 571.838,113.643 573.5,96.5 Z"/></g>
<g><path style="opacity:1" fill="#7f7f7f" d="M 573.5,96.5 C 571.838,113.643 570.838,130.976 570.5,148.5C 570.5,130.833 570.5,113.167 570.5,95.5C 571.791,95.2627 572.791,95.596 573.5,96.5 Z"/></g>
<g><path style="opacity:1" fill="#f8f8f8" d="M 656.5,140.5 C 664.812,145.991 672.645,151.991 680,158.5C 686.034,183.11 688.868,208.11 688.5,233.5C 677.631,229.402 666.965,224.735 656.5,219.5C 655.457,193.169 655.457,166.836 656.5,140.5 Z"/></g>
<g><path style="opacity:1" fill="#595959" d="M 446.5,188.5 C 446.077,190.781 446.744,192.448 448.5,193.5C 447.791,194.404 446.791,194.737 445.5,194.5C 445.205,192.265 445.539,190.265 446.5,188.5 Z"/></g>
<g><path style="opacity:1" fill="#fdfdfd" d="M 801.5,196.5 C 836.827,194.11 870.827,199.61 903.5,213C 943.552,234.636 957.052,267.469 944,311.5C 932.293,352.932 912.293,389.598 884,421.5C 879.281,426.722 874.115,431.388 868.5,435.5C 865.502,428.843 862.502,422.177 859.5,415.5C 880.351,388.792 894.518,358.792 902,325.5C 907.535,293.403 895.702,270.236 866.5,256C 846.583,248.18 825.917,244.347 804.5,244.5C 779.066,243.707 755.232,249.374 733,261.5C 720.6,253.046 707.767,245.212 694.5,238C 725.228,211.479 760.895,197.645 801.5,196.5 Z"/></g>
<g><path style="opacity:1" fill="#fcfcfc" d="M 479.5,197.5 C 604.235,192.483 708.735,235.483 793,326.5C 853.857,396.936 884.523,478.936 885,572.5C 861.817,473.762 811.984,391.595 735.5,326C 632.468,245.417 518.468,225.084 393.5,265C 317.337,294.502 255.837,342.669 209,409.5C 166.456,471.438 139.789,539.771 129,614.5C 117.334,482.391 161.167,372.891 260.5,286C 324.218,233.918 397.218,204.418 479.5,197.5 Z"/></g>
<g><path style="opacity:1" fill="#fdfdfd" d="M 137.5,207.5 C 171.603,204.477 204.603,208.977 236.5,221C 255.83,229.176 272.497,241.009 286.5,256.5C 273.88,265.785 261.547,275.452 249.5,285.5C 224.337,264.278 195.17,254.278 162,255.5C 143.847,255.14 126.347,258.307 109.5,265C 81.0335,278.098 68.2002,300.265 71,331.5C 78.4159,372.489 95.7492,408.489 123,439.5C 127.667,443.5 132.333,447.5 137,451.5C 136.658,456.037 135.491,460.371 133.5,464.5C 121.669,457.507 110.835,449.174 101,439.5C 67.979,403.805 45.6457,362.138 34,314.5C 25.2736,268.231 42.7736,236.398 86.5,219C 103.187,213.226 120.187,209.392 137.5,207.5 Z"/></g>
<g><path style="opacity:1" fill="#fdfdfd" d="M 484.5,309.5 C 530.902,307.179 576.235,313.012 620.5,327C 583.614,336.546 558.781,359.38 546,395.5C 544.844,400.122 544.01,404.789 543.5,409.5C 515.104,407.759 486.771,408.426 458.5,411.5C 448.2,377.367 426.2,354.533 392.5,343C 383.353,340.371 374.019,339.037 364.5,339C 385.097,329.801 406.431,322.801 428.5,318C 447.15,314.056 465.817,311.223 484.5,309.5 Z"/></g>
<g><path style="opacity:1" fill="#fdfdfd" d="M 623.5,334.5 C 668.62,333.64 699.12,354.307 715,396.5C 725.439,430.763 720.772,462.763 701,492.5C 677.663,522.502 647.496,533.002 610.5,524C 573.889,508.65 553.389,481.15 549,441.5C 545.662,401.019 560.495,369.185 593.5,346C 603.028,340.662 613.028,336.828 623.5,334.5 Z"/></g>
<g><path style="opacity:1" fill="#fdfdfd" d="M 358.5,347.5 C 406.315,347.134 437.482,369.801 452,415.5C 461.566,457.092 451.066,492.592 420.5,522C 378.821,550.3 340.655,546.133 306,509.5C 281.9,476.125 277.233,440.125 292,401.5C 305.201,372.186 327.368,354.186 358.5,347.5 Z"/></g>
<g><path style="opacity:1" fill="#fcfcfc" d="M 711.5,370.5 C 793.849,425.774 848.349,501.441 875,597.5C 877.49,607.44 879.656,617.44 881.5,627.5C 880.278,637.121 878.111,646.454 875,655.5C 844.088,577.264 793.421,515.264 723,469.5C 724.966,459.615 726.633,449.615 728,439.5C 729.757,414.673 724.257,391.673 711.5,370.5 Z"/></g>
<g><path style="opacity:1" fill="#fcfcfc" d="M 296.5,375.5 C 297.239,375.369 297.906,375.536 298.5,376C 281.691,398.677 274.191,424.177 276,452.5C 277.21,462.319 278.877,471.986 281,481.5C 213.853,530.42 167.186,594.42 141,673.5C 137.082,662.829 134.582,651.829 133.5,640.5C 152.035,529.694 206.368,441.36 296.5,375.5 Z"/></g>
<g><path style="opacity:1" fill="#020202" d="M 615.5,419.5 C 644.453,419.612 657.286,433.945 654,462.5C 647.822,480.852 634.989,489.019 615.5,487C 594.721,479.286 586.555,464.453 591,442.5C 595.534,430.795 603.7,423.128 615.5,419.5 Z"/></g>
<g><path style="opacity:1" fill="#020202" d="M 365.5,424.5 C 391.693,423.862 404.859,436.529 405,462.5C 401.755,481.907 390.255,491.907 370.5,492.5C 348.249,488.049 338.082,474.383 340,451.5C 343.604,437.733 352.104,428.733 365.5,424.5 Z"/></g>
<g><path style="opacity:1" fill="#fcfcfc" d="M 488.5,487.5 C 504.17,487.333 519.837,487.5 535.5,488C 542.888,488.393 550.221,489.227 557.5,490.5C 584.324,530.126 620.658,542.959 666.5,529C 671.99,526.754 677.323,524.254 682.5,521.5C 762.995,554.83 824.495,609.497 867,685.5C 865.803,691.428 863.97,697.262 861.5,703C 861.15,704.257 860.483,704.591 859.5,704C 817.092,654.261 766.092,615.928 706.5,589C 680.663,578.277 654.33,568.943 627.5,561C 586.187,553.402 544.52,549.235 502.5,548.5C 398.935,553.653 307.268,588.819 227.5,654C 202.521,675.809 180.187,699.976 160.5,726.5C 157.544,720.467 154.877,714.3 152.5,708C 178.243,650.539 216.576,603.205 267.5,566C 284.499,554.163 302.165,543.33 320.5,533.5C 356.746,554.971 391.746,553.138 425.5,528C 436.994,518.013 445.994,506.18 452.5,492.5C 464.571,490.373 476.571,488.707 488.5,487.5 Z"/></g>
<g><path style="opacity:1" fill="#e9c7d6" d="M 548.5,559.5 C 549.622,558.844 550.955,558.511 552.5,558.5C 560.635,558.98 568.635,560.147 576.5,562C 571.063,563.526 565.73,565.359 560.5,567.5C 556.736,564.389 552.736,561.723 548.5,559.5 Z"/></g>
<g><path style="opacity:1" fill="#e1bfce" d="M 452.5,561.5 C 454.199,561.34 455.866,561.506 457.5,562C 453.274,565.402 449.274,568.902 445.5,572.5C 438.445,570.593 431.445,568.76 424.5,567C 433.957,565.075 443.29,563.242 452.5,561.5 Z"/></g>
<g><path style="opacity:1" fill="#f9d4e4" d="M 591.5,566.5 C 622.65,564.053 650.316,572.553 674.5,592C 702.903,621.312 706.069,653.145 684,687.5C 659.406,715.028 628.572,726.861 591.5,723C 565.053,719.365 543.22,707.532 526,687.5C 512.068,668.677 508.235,648.01 514.5,625.5C 530.347,623.831 544.681,618.331 557.5,609C 568.047,598.896 571.047,587.062 566.5,573.5C 574.74,570.36 583.074,568.027 591.5,566.5 Z"/></g>
<g><path style="opacity:1" fill="#f9d4e4" d="M 395.5,574.5 C 411.815,573.547 427.815,575.213 443.5,579.5C 441.335,591.172 444.669,601.006 453.5,609C 466.163,618.723 480.496,624.223 496.5,625.5C 507.613,654.152 502.78,679.819 482,702.5C 457.453,724.571 428.62,734.071 395.5,731C 369.053,727.365 347.22,715.532 330,695.5C 308.214,661.749 311.047,630.249 338.5,601C 355.02,586.739 374.02,577.906 395.5,574.5 Z"/></g>
<g><path style="opacity:1" fill="#f9d4e4" d="M 681.5,588.5 C 751.603,613.769 810.27,655.603 857.5,714C 814.304,813.195 742.304,882.529 641.5,922C 531.104,961.491 424.104,953.825 320.5,899C 251.686,860.535 199.686,806.035 164.5,735.5C 207.405,674.592 262.738,629.092 330.5,599C 304.627,626.795 300.46,657.628 318,691.5C 339.38,722.78 369.213,738.78 407.5,739.5C 439.299,739.521 466.466,728.521 489,706.5C 498.187,696.465 504.52,684.798 508,671.5C 524.835,706.369 552.669,726.203 591.5,731C 624.589,733.735 653.922,724.735 679.5,704C 708.293,675.407 713.793,642.907 696,606.5C 692.061,599.733 687.228,593.733 681.5,588.5 Z"/></g>
</svg>
